<?xml version="1.0" encoding="utf-8"?>
<!-- Generator: Adobe Illustrator 22.0.1, SVG Export Plug-In . SVG Version: 6.00 Build 0)  -->
<svg version="1.1" id="Ebene_1" xmlns="http://www.w3.org/2000/svg" xmlns:xlink="http://www.w3.org/1999/xlink" x="0px" y="0px"
	 viewBox="0 0 324 78" style="enable-background:new 0 0 324 78;" xml:space="preserve">
<style type="text/css">
	.st0{fill:#AAAAAA;}
	.st1{fill:#333333;}
</style>
<g>
	<path class="st0" d="M282.3,25.6c2.3,4.5,3.5,10,3.5,16.5s-1.2,12.1-3.5,16.5c-2.9,5.8-8.1,9.1-14.9,9.1s-11.9-3.3-14.9-9.1
		c-2.3-4.5-3.5-10-3.5-16.5s1.2-12.1,3.5-16.5c2.9-5.8,8.1-9.1,14.9-9.1S279.4,19.9,282.3,25.6z M258.2,28.4
		c-1.7,3.5-2.6,8.1-2.6,13.8c0,5.7,0.9,10.3,2.6,13.8c2,4.2,5.1,6.3,9.3,6.3s7.3-2.1,9.3-6.3c1.7-3.5,2.6-8.1,2.6-13.8
		c0-5.7-0.9-10.3-2.6-13.8c-2-4.2-5.1-6.3-9.3-6.3S260.2,24.1,258.2,28.4z"/>
	<path class="st0" d="M311,17.7v48.9h-6.3V25.8l-10.4,7.3l-3.2-4.4l15-11H311z"/>
</g>
<g>
	<g>
		<path class="st1" d="M54.2,50.6c0,9.7-6.7,15.7-17.3,15.7H8.8V10.6h26.6c9.8,0,16.8,5.3,16.8,14.4c0,6.1-3.3,10.3-8.6,12.1
			C50.4,39.2,54.2,43.6,54.2,50.6z M19.8,33h12.9c5.7,0,8.8-2.8,8.8-7.2c0-4.5-2.9-6.8-8.7-6.8h-13V33z M32.9,57.9
			c6.7,0,10.2-3,10.2-8.1c0-5-3.6-8.2-10.2-8.2H19.8v16.3H32.9z"/>
		<rect x="61.3" y="10.6" class="st1" width="10.2" height="10.2"/>
		<rect x="61.3" y="26.2" class="st1" width="10.2" height="40.2"/>
		<path class="st1" d="M103.8,65.8c-3,1-6,1.5-9,1.5c-7.9,0-11.4-3.7-11.4-11.3V34h-7.2v-7.8h7.2V13.8h10.2v12.4h9.6V34h-9.6v20.8
			c0,2.8,1.2,3.7,4,3.7c1.4,0,3.1-0.2,5-0.7L103.8,65.8z"/>
		<path class="st1" d="M155.5,50.6c0,9.7-6.7,15.7-17.3,15.7h-28.1V10.6h26.6c9.8,0,16.8,5.3,16.8,14.4c0,6.1-3.3,10.3-8.6,12.1
			C151.7,39.2,155.5,43.6,155.5,50.6z M121.1,33H134c5.7,0,8.8-2.8,8.8-7.2c0-4.5-2.9-6.8-8.7-6.8h-13V33z M134.2,57.9
			c6.7,0,10.2-3,10.2-8.1c0-5-3.6-8.2-10.2-8.2h-13.1v16.3H134.2z"/>
		<path class="st1" d="M202,46.2c0,12.7-8.7,21.4-20.8,21.4c-12.2,0-20.9-8.6-20.9-21.4s8.7-21.4,20.9-21.4
			C193.3,24.9,202,33.5,202,46.2z M170.7,46.2c0,7.8,4.2,12.7,10.5,12.7c6.3,0,10.5-5,10.5-12.7c0-7.6-4.2-12.7-10.5-12.7
			C174.8,33.5,170.7,38.6,170.7,46.2z"/>
		<path class="st1" d="M231.3,66.4l-9-13.8l-9.1,13.8h-11l14.5-21.1l-13.1-19.1h11.1l7.9,11.8l7.7-11.8h11l-13,18.7l14.4,21.5H231.3
			z"/>
	</g>
</g>
</svg>
